<?xml version="1.0" encoding="UTF-8"?>
<svg version="1.1" xmlns="http://www.w3.org/2000/svg" width="612" height="408">
<path d="M0 0 C1.1919397 0.00737183 1.1919397 0.00737183 2.40795898 0.01489258 C8.41173663 0.13453863 13.66070561 0.83497148 19.1875 3.3125 C19.92871094 3.64121094 20.66992188 3.96992188 21.43359375 4.30859375 C33.61729647 10.41100291 41.43351329 19.99409444 46.33203125 32.45629883 C47.84210811 37.49807657 47.82227101 42.45897029 47.75 47.6875 C47.73573975 49.3435022 47.73573975 49.3435022 47.72119141 51.03295898 C47.39467299 63.78510735 43.27935977 73.22064023 34.1875 82.3125 C30.38465752 82.2071581 28.58544904 81.64108177 25.6328125 79.203125 C24.86710937 78.33171875 24.10140625 77.4603125 23.3125 76.5625 C22.53132813 75.70140625 21.75015625 74.8403125 20.9453125 73.953125 C19.00049533 71.03157743 18.63904556 69.74178358 19.1875 66.3125 C20.48236821 64.61577614 21.82110658 62.9521721 23.1875 61.3125 C26.89702904 54.95330736 27.09079022 48.55602732 26.1875 41.3125 C23.56196708 32.79410431 18.381007 28.10817134 11.1875 23.3125 C1.95184105 20.51381547 -7.18715711 22.65326362 -15.8125 26.3125 C-15.8125 26.9725 -15.8125 27.6325 -15.8125 28.3125 C-16.39 28.84875 -16.9675 29.385 -17.5625 29.9375 C-22.16246883 34.79302265 -24.5326691 40.81461369 -25.0625 47.4375 C-24.56574105 55.1372638 -22.6071849 61.17226288 -17.41015625 66.9375 C-15.65758286 68.44582722 -13.91525712 69.36784885 -11.8125 70.3125 C-11.8125 70.9725 -11.8125 71.6325 -11.8125 72.3125 C-8.36261795 72.9317096 -4.9205129 73.4322057 -1.4375 73.8125 C-0.66792969 73.90273437 0.10164063 73.99296875 0.89453125 74.0859375 C3.14763449 74.33926778 3.14763449 74.33926778 5.26171875 74.3515625 C11.70111811 74.62988624 14.7904321 77.88552007 19.1875 82.3125 C20.24352951 83.33463896 21.30091852 84.35537446 22.359375 85.375 C23.47012544 86.45692304 24.57950043 87.54025996 25.6875 88.625 C26.22858398 89.15262939 26.76966797 89.68025879 27.32714844 90.22387695 C28.65348416 91.54829107 29.9256201 92.92653525 31.1875 94.3125 C31.1875 94.9725 31.1875 95.6325 31.1875 96.3125 C32.0846875 96.621875 32.0846875 96.621875 33 96.9375 C36.1208661 98.89918727 36.93442608 100.88303453 38.1875 104.3125 C38.1875 108.31315715 37.44793571 109.9601458 35.0625 113.1875 C32.1875 115.3125 32.1875 115.3125 28.75 115.875 C21.73818666 114.76787158 18.496303 110.59078368 14.1875 105.3125 C13.14593598 104.3924087 12.08316765 103.49573041 11 102.625 C8.1875 100.3125 8.1875 100.3125 6.1875 97.3125 C2.95492779 96.61141234 2.95492779 96.61141234 -0.8125 96.3125 C-11.93169393 95.03693864 -20.9288542 92.48419322 -29.8125 85.3125 C-30.48609168 83.98265171 -31.15353237 82.64965515 -31.8125 81.3125 C-32.76769531 80.84457031 -32.76769531 80.84457031 -33.7421875 80.3671875 C-36.55572443 78.93387623 -37.39383494 77.1611394 -38.9375 74.4375 C-39.43507812 73.57382813 -39.93265625 72.71015625 -40.4453125 71.8203125 C-41.12207031 70.57894531 -41.12207031 70.57894531 -41.8125 69.3125 C-42.36164063 68.31669922 -42.36164063 68.31669922 -42.921875 67.30078125 C-48.11816212 55.70029815 -46.74476575 41.00846992 -42.8125 29.3125 C-40.59675398 23.78260394 -37.50318774 18.97442136 -33.8125 14.3125 C-33.1525 14.3125 -32.4925 14.3125 -31.8125 14.3125 C-31.62042969 13.73757812 -31.42835938 13.16265625 -31.23046875 12.5703125 C-29.21782013 9.36559926 -26.35987473 7.95809741 -23.125 6.1875 C-22.52494141 5.84074219 -21.92488281 5.49398437 -21.30664062 5.13671875 C-14.38040043 1.25326292 -7.87090532 -0.05753708 0 0 Z " fill="#0643D7" transform="translate(168.8125,142.6875)"/>
<path d="M0 0 C4.970625 -0.04125 9.94125 -0.0825 15.0625 -0.125 C17.39453491 -0.15231201 17.39453491 -0.15231201 19.77368164 -0.18017578 C21.01496826 -0.1851709 22.25625488 -0.19016602 23.53515625 -0.1953125 C25.42826538 -0.21102295 25.42826538 -0.21102295 27.35961914 -0.22705078 C35.55092385 0.2838414 40.59773123 3.02840548 46 9 C49.01751694 14.5321144 48.93024654 22.04645221 47.5 28.125 C45.43427853 33.57099298 41.65174664 35.89883557 37 39 C40.76608324 44.71120316 44.63360037 50.31854596 48.6796875 55.8359375 C50 58 50 58 50 61 C44.75551556 61.79896443 40.21896462 62.13271646 35 61 C31.24933961 57.18176015 29.21359398 52.80171018 27 48 C25.4894683 45.07932005 24.32203701 43.4326102 22 41 C18.7 40.67 15.4 40.34 12 40 C12 46.93 12 53.86 12 61 C8.04 61 4.08 61 0 61 C0 40.87 0 20.74 0 0 Z M12 11 C12 16.94 12 22.88 12 29 C16.3003125 29.1546875 16.3003125 29.1546875 20.6875 29.3125 C21.58170654 29.35802002 22.47591309 29.40354004 23.3972168 29.45043945 C27.71100798 29.52542405 29.49300427 29.38008492 33.05859375 26.70703125 C35.55153978 23.23095158 35.46585941 21.19273467 35 17 C34.2757108 13.67633949 34.2757108 13.67633949 30.8125 12.3125 C24.71766634 10.17317996 18.36729734 10.81632796 12 11 Z " fill="#0E2963" transform="translate(244,163)"/>
<path d="M0 0 C0.928125 0.495 1.85625 0.99 2.8125 1.5 C3.1425 0.84 3.4725 0.18 3.8125 -0.5 C7.7725 -0.5 11.7325 -0.5 15.8125 -0.5 C15.8125 20.29 15.8125 41.08 15.8125 62.5 C11.8525 62.5 7.8925 62.5 3.8125 62.5 C2.1626993 59.20039859 2.42991639 55.50872116 2.25 51.875 C2.20681641 51.07320312 2.16363281 50.27140625 2.11914062 49.4453125 C2.01298543 47.4637489 1.91223145 45.48189729 1.8125 43.5 C0.636875 43.995 -0.53875 44.49 -1.75 45 C-8.09612881 47.33804746 -13.67063555 46.95320011 -19.9765625 44.671875 C-25.1801586 41.9137852 -28.17859939 37.19234942 -31.125 32.25 C-33.37436401 24.31106818 -33.18299968 16.75109201 -29.1875 9.5 C-28.754375 8.613125 -28.32125 7.72625 -27.875 6.8125 C-21.63873594 -1.73349149 -9.49090286 -4.07857536 0 0 Z M-19.1875 16.5 C-20.05398924 21.54281127 -19.99017188 26.09532421 -17.4375 30.5625 C-14.11216806 33.42598028 -12.25281096 34.33919835 -7.875 35 C-3.59385699 34.41950603 -1.6610744 33.34729048 1.421875 30.41015625 C3.90745953 26.99596851 4.19067721 23.63028836 3.8125 19.5 C2.14780873 14.31008016 -0.38594629 11.99680793 -5.1875 9.5 C-10.798612 8.3777776 -15.79537162 12.22296857 -19.1875 16.5 Z " fill="#163168" transform="translate(459.1875,179.5)"/>
<path d="M0 0 C6.44064185 2.51654218 11.22051124 7.89154728 14.08203125 14.06640625 C15.95808019 22.00353637 15.62961158 30.15231956 11.89453125 37.50390625 C9.45703125 40.37890625 9.45703125 40.37890625 6.89453125 42.50390625 C6.25515625 43.06078125 5.61578125 43.61765625 4.95703125 44.19140625 C0.13048226 47.26284652 -4.46020549 47.98231839 -10.10546875 47.50390625 C-13.16769556 46.6576359 -16.13743766 45.63458476 -19.10546875 44.50390625 C-19.10546875 43.84390625 -19.10546875 43.18390625 -19.10546875 42.50390625 C-19.76546875 42.50390625 -20.42546875 42.50390625 -21.10546875 42.50390625 C-21.10546875 49.43390625 -21.10546875 56.36390625 -21.10546875 63.50390625 C-24.73546875 63.50390625 -28.36546875 63.50390625 -32.10546875 63.50390625 C-33.27494085 57.02651733 -33.24995787 50.64709367 -33.23828125 44.078125 C-33.23923798 42.89418655 -33.2401947 41.71024811 -33.24118042 40.49043274 C-33.24185881 37.99842271 -33.24002836 35.50641089 -33.23583984 33.0144043 C-33.23046298 29.18729737 -33.23580859 25.36030653 -33.2421875 21.53320312 C-33.24152712 19.11067682 -33.2402468 16.68815059 -33.23828125 14.265625 C-33.24030548 13.11672287 -33.24232971 11.96782074 -33.24441528 10.78410339 C-33.24126312 9.72572769 -33.23811096 8.66735199 -33.23486328 7.5769043 C-33.23366989 6.17627998 -33.23366989 6.17627998 -33.23245239 4.74736023 C-33.10546875 2.50390625 -33.10546875 2.50390625 -32.10546875 0.50390625 C-28.47546875 0.50390625 -24.84546875 0.50390625 -21.10546875 0.50390625 C-20.77546875 1.49390625 -20.44546875 2.48390625 -20.10546875 3.50390625 C-19.32171875 3.02953125 -18.53796875 2.55515625 -17.73046875 2.06640625 C-12.17488677 -1.24048779 -6.33881334 -1.49356084 0 0 Z M-18.10546875 14.50390625 C-20.63245266 17.97850912 -21.3307657 20.4386278 -20.91796875 24.62890625 C-19.75392615 30.23411411 -19.75392615 30.23411411 -15.98046875 34.25390625 C-12.22369841 35.88728466 -9.14084819 36.23240274 -5.10546875 35.50390625 C-0.82663959 33.03169385 1.25658372 30.14475758 2.89453125 25.50390625 C2.68786683 21.50839416 2.34988983 17.74051528 -0.10546875 14.50390625 C-6.51518667 9.82610706 -11.53916729 9.40908922 -18.10546875 14.50390625 Z " fill="#062460" transform="translate(376.10546875,178.49609375)"/>
<path d="M0 0 C5.09544668 2.59404558 8.90392284 6.96106979 10.77734375 12.390625 C11.21366759 15.03798315 11.21942681 17.56814827 11.1875 20.25 C11.17847656 21.23484375 11.16945313 22.2196875 11.16015625 23.234375 C11.14855469 23.98203125 11.13695312 24.7296875 11.125 25.5 C8.27492869 26.92503565 5.83879745 26.62980035 2.65625 26.6328125 C0.71685547 26.63474609 0.71685547 26.63474609 -1.26171875 26.63671875 C-1.93638184 26.63462402 -2.61104492 26.6325293 -3.30615234 26.63037109 C-5.36693689 26.62502093 -7.42750349 26.63032035 -9.48828125 26.63671875 C-10.78121094 26.63542969 -12.07414062 26.63414062 -13.40625 26.6328125 C-14.59798828 26.63168457 -15.78972656 26.63055664 -17.01757812 26.62939453 C-19.875 26.5 -19.875 26.5 -21.875 25.5 C-19.77482784 29.47927357 -17.73714138 32.13004961 -13.875 34.5 C-9.589302 35.11224257 -7.648656 35.00455826 -4 32.625 C-1.83547153 30.6844662 -1.83547153 30.6844662 -0.875 28.5 C0.5839426 28.97730838 2.04213496 29.45691042 3.5 29.9375 C4.31210937 30.20433594 5.12421875 30.47117188 5.9609375 30.74609375 C8.125 31.5 8.125 31.5 10.125 32.5 C9.63773044 36.72300287 7.17988498 39.71857019 4.125 42.5 C-3.73849792 46.50072701 -10.39122367 47.60716495 -19 45.25 C-25.75546304 43.0220258 -29.63860064 39.62919211 -32.91796875 33.3203125 C-35.49193016 25.73500581 -35.09350744 17.16733879 -31.8125 9.875 C-25.269519 -1.28328489 -11.83584619 -4.53373091 0 0 Z M-17.875 10.5 C-20.39354101 13.08036732 -20.39354101 13.08036732 -20.875 16.5 C-14.275 16.5 -7.675 16.5 -0.875 16.5 C-3.12666739 10.4349276 -3.12666739 10.4349276 -7.125 9 C-11.41503663 8.42799512 -13.89986617 8.81821261 -17.875 10.5 Z " fill="#0D2864" transform="translate(327.875,179.5)"/>
<path d="M0 0 C7.75 -0.125 7.75 -0.125 10 1 C10.70625678 21.00998272 11.14833625 40.97460688 11 61 C7.04 61 3.08 61 -1 61 C-2.14654482 58.70691037 -2.19729117 57.20090344 -2.31640625 54.6484375 C-2.37924805 53.37226563 -2.37924805 53.37226563 -2.44335938 52.0703125 C-2.48267578 51.18085938 -2.52199219 50.29140625 -2.5625 49.375 C-2.60568359 48.4778125 -2.64886719 47.580625 -2.69335938 46.65625 C-2.79956861 44.43765717 -2.90161194 42.2189512 -3 40 C-3.66 39.67 -4.32 39.34 -5 39 C-5 39.99 -5 40.98 -5 42 C-7.64 42 -10.28 42 -13 42 C-13.33 39.69 -13.66 37.38 -14 35 C-13.37351562 34.96261719 -12.74703125 34.92523438 -12.1015625 34.88671875 C-11.28429687 34.82097656 -10.46703125 34.75523437 -9.625 34.6875 C-8.81289063 34.62949219 -8.00078125 34.57148438 -7.1640625 34.51171875 C-4.62078662 34.17009472 -4.62078662 34.17009472 -3 31 C-2.34 31 -1.68 31 -1 31 C-1.53410863 23.64748331 -2.13140916 16.32097997 -3 9 C-3.33 9.33 -3.66 9.66 -4 10 C-4.33 9.34 -4.66 8.68 -5 8 C-5.66 7.67 -6.32 7.34 -7 7 C-4.8614515 4.8614515 -3.86724686 4.57344937 -1 4 C-0.67 2.68 -0.34 1.36 0 0 Z " fill="#082561" transform="translate(464,181)"/>
<path d="M0 0 C3.96 0 7.92 0 12 0 C12 20.13 12 40.26 12 61 C8.04 61 4.08 61 0 61 C0 40.87 0 20.74 0 0 Z " fill="#031E5A" transform="translate(395,163)"/>
<path d="M0 0 C3.96 0 7.92 0 12 0 C12 14.85 12 29.7 12 45 C8.04 45 4.08 45 0 45 C-1.53084425 43.46915575 -1.12715779 42.08796856 -1.12939453 39.95507812 C-1.13254669 39.09748901 -1.13569885 38.2398999 -1.13894653 37.35632324 C-1.1369223 36.42404907 -1.13489807 35.4917749 -1.1328125 34.53125 C-1.13376923 33.58060669 -1.13472595 32.62996338 -1.13571167 31.6505127 C-1.13639357 29.63631118 -1.13453862 27.62210748 -1.13037109 25.60791016 C-1.12502298 22.51329645 -1.13031577 19.4188279 -1.13671875 16.32421875 C-1.13605797 14.37239551 -1.13477681 12.42057236 -1.1328125 10.46875 C-1.13483673 9.53647583 -1.13686096 8.60420166 -1.13894653 7.64367676 C-1.13579437 6.78608765 -1.13264221 5.92849854 -1.12939453 5.04492188 C-1.12859894 4.28626831 -1.12780334 3.52761475 -1.12698364 2.74597168 C-1 1 -1 1 0 0 Z " fill="#011F5D" transform="translate(412,179)"/>
<path d="M0 0 C5.09544668 2.59404558 8.90392284 6.96106979 10.77734375 12.390625 C11.21366759 15.03798315 11.21942681 17.56814827 11.1875 20.25 C11.17847656 21.23484375 11.16945313 22.2196875 11.16015625 23.234375 C11.14855469 23.98203125 11.13695312 24.7296875 11.125 25.5 C8.52608846 26.79945577 6.79833344 26.5223077 3.8984375 26.37890625 C2.8671875 26.33056641 1.8359375 26.28222656 0.7734375 26.23242188 C-0.84691406 26.14831055 -0.84691406 26.14831055 -2.5 26.0625 C-3.58796875 26.01029297 -4.6759375 25.95808594 -5.796875 25.90429688 C-8.4898581 25.77437225 -11.18249336 25.63939838 -13.875 25.5 C-13.875 25.17 -13.875 24.84 -13.875 24.5 C-12.225 24.17 -10.575 23.84 -8.875 23.5 C-9.535 22.51 -10.195 21.52 -10.875 20.5 C-10.545 20.17 -10.215 19.84 -9.875 19.5 C-10.57367188 19.43941406 -11.27234375 19.37882812 -11.9921875 19.31640625 C-12.90226562 19.23261719 -13.81234375 19.14882812 -14.75 19.0625 C-15.65492188 18.98128906 -16.55984375 18.90007812 -17.4921875 18.81640625 C-19.875 18.5 -19.875 18.5 -21.875 17.5 C-21.854375 16.2625 -21.83375 15.025 -21.8125 13.75 C-21.8073217 10.81908013 -22.00799938 8.31775201 -22.875 5.5 C-22.875 4.84 -22.875 4.18 -22.875 3.5 C-23.535 3.17 -24.195 2.84 -24.875 2.5 C-16.95943264 -2.37111837 -8.83465196 -3.33720411 0 0 Z M-17.875 10.5 C-20.39354101 13.08036732 -20.39354101 13.08036732 -20.875 16.5 C-14.275 16.5 -7.675 16.5 -0.875 16.5 C-3.12666739 10.4349276 -3.12666739 10.4349276 -7.125 9 C-11.41503663 8.42799512 -13.89986617 8.81821261 -17.875 10.5 Z " fill="#0A2760" transform="translate(327.875,179.5)"/>
<path d="M0 0 C3.97714696 5.96572044 3.84949852 12.638795 2.50390625 19.546875 C1.01786641 24.55071536 -0.90601883 27.60499123 -5 31 C-5.639375 31.556875 -6.27875 32.11375 -6.9375 32.6875 C-11.76404899 35.75894027 -16.35473674 36.47841214 -22 36 C-25.06222681 35.15372965 -28.03196891 34.13067851 -31 33 C-31 32.34 -31 31.68 -31 31 C-31.66 31 -32.32 31 -33 31 C-33 37.93 -33 44.86 -33 52 C-36.63 52 -40.26 52 -44 52 C-44 51.67 -44 51.34 -44 51 C-40.7 51 -37.4 51 -34 51 C-34 44.07 -34 37.14 -34 30 C-31.03 28.35 -28.06 26.7 -25 25 C-25 24.67 -25 24.34 -25 24 C-23.1746875 23.9071875 -23.1746875 23.9071875 -21.3125 23.8125 C-16.7737134 23.27711496 -15.08899577 21.33945489 -12 18 C-9.1875 17.1875 -9.1875 17.1875 -7 17 C-7 14.36 -7 11.72 -7 9 C-6.34 9 -5.68 9 -5 9 C-4.67 8.34 -4.34 7.68 -4 7 C-3.34 7.33 -2.68 7.66 -2 8 C-1.62109375 9.9609375 -1.62109375 9.9609375 -1.4375 12.375 C-1.21246912 15.19477465 -0.90445432 17.28663703 0 20 C0 13.4 0 6.8 0 0 Z " fill="#163069" transform="translate(388,190)"/>
<path d="M0 0 C1.4589426 0.47730838 2.91713496 0.95691042 4.375 1.4375 C5.59316406 1.83775391 5.59316406 1.83775391 6.8359375 2.24609375 C9 3 9 3 11 4 C10.51273044 8.22300287 8.05488498 11.21857019 5 14 C-3.87654491 18.51613688 -11.21859322 18.99274818 -20.69921875 15.9140625 C-25.72440982 13.91763685 -28.70119618 10.85303028 -31 6 C-30.67 5.34 -30.34 4.68 -30 4 C-27.9375 3.375 -27.9375 3.375 -26 3 C-26.33 5.31 -26.66 7.62 -27 10 C-26.34 10 -25.68 10 -25 10 C-25 9.01 -25 8.02 -25 7 C-22.0280615 8.12451727 -19.66559313 9.22293791 -17 11 C-17.33 8.36 -17.66 5.72 -18 3 C-17.319375 3.495 -16.63875 3.99 -15.9375 4.5 C-12.27568094 6.36986505 -10.06785405 6.50848176 -6 6 C-3.24670979 4.20437595 -1.47372539 2.94745078 0 0 Z M-21 6 C-19 7 -19 7 -19 7 Z " fill="#03215E" transform="translate(327,208)"/>
<path d="M0 0 C3.96 0 7.92 0 12 0 C12 20.13 12 40.26 12 61 C8.04 61 4.08 61 0 61 C0.33 60.34 0.66 59.68 1 59 C3.32156597 58.59270772 5.6568787 58.25561323 8 58 C8 57.01 8 56.02 8 55 C8.66 55 9.32 55 10 55 C10 41.47 10 27.94 10 14 C8.99983813 16.00032373 8.50603992 17.83125748 8 20 C5.525 19.01 5.525 19.01 3 18 C3 17.34 3 16.68 3 16 C2.01 16 1.02 16 0 16 C0 10.72 0 5.44 0 0 Z " fill="#062362" transform="translate(395,163)"/>
<path d="M0 0 C0.33 -0.66 0.66 -1.32 1 -2 C4.96 -2 8.92 -2 13 -2 C13 9.88 13 21.76 13 34 C12.67 34 12.34 34 12 34 C12 23.11 12 12.22 12 1 C8.7 0.67 5.4 0.34 2 0 C1.67 1.98 1.34 3.96 1 6 C-0.65 6.33 -2.3 6.66 -4 7 C-2.68 7.66 -1.36 8.32 0 9 C-0.66 10.32 -1.32 11.64 -2 13 C-2.78375 12.34 -3.5675 11.68 -4.375 11 C-8.61192232 8.10748572 -13.06675416 8.64901808 -18 9 C-18.66 7.68 -19.32 6.36 -20 5 C-20.99 5 -21.98 5 -23 5 C-21.63016497 1.83884224 -21.0109362 1.0072908 -18 -1 C-15.4765625 -1.44921875 -15.4765625 -1.44921875 -12.625 -1.6875 C-11.68914062 -1.77386719 -10.75328125 -1.86023438 -9.7890625 -1.94921875 C-6.20660016 -2.01444566 -3.21505832 -1.60752916 0 0 Z " fill="#143069" transform="translate(462,181)"/>
<path d="M0 0 C1.65 0 3.3 0 5 0 C4.67 1.32 4.34 2.64 4 4 C4.99 4 5.98 4 7 4 C7.66 5.32 8.32 6.64 9 8 C10.32 8 11.64 8 13 8 C13 7.34 13 6.68 13 6 C13.66 6 14.32 6 15 6 C15 4.02 15 2.04 15 0 C17.57487267 1.28743634 17.94188161 2.52038992 19.25 5.0625 C21.4330554 9.14839771 23.9363165 12.69030181 26.86328125 16.2734375 C28 18 28 18 28 21 C22.75545922 21.79897301 18.21988211 22.12762159 13 21 C9.21628267 17.1992389 7.23544051 12.82877174 5 8 C4.02778498 6.37884342 3.03271385 4.77080439 2 3.1875 C1.34 2.135625 0.68 1.08375 0 0 Z " fill="#122D64" transform="translate(266,203)"/>
<path d="M0 0 C3.96 0 7.92 0 12 0 C12 14.85 12 29.7 12 45 C8.04 45 4.08 45 0 45 C-1.53084425 43.46915575 -1.12715779 42.08796856 -1.12939453 39.95507812 C-1.13254669 39.09748901 -1.13569885 38.2398999 -1.13894653 37.35632324 C-1.1369223 36.42404907 -1.13489807 35.4917749 -1.1328125 34.53125 C-1.13376923 33.58060669 -1.13472595 32.62996338 -1.13571167 31.6505127 C-1.13639357 29.63631118 -1.13453862 27.62210748 -1.13037109 25.60791016 C-1.12502298 22.51329645 -1.13031577 19.4188279 -1.13671875 16.32421875 C-1.13605797 14.37239551 -1.13477681 12.42057236 -1.1328125 10.46875 C-1.13483673 9.53647583 -1.13686096 8.60420166 -1.13894653 7.64367676 C-1.13579437 6.78608765 -1.13264221 5.92849854 -1.12939453 5.04492188 C-1.12859894 4.28626831 -1.12780334 3.52761475 -1.12698364 2.74597168 C-1 1 -1 1 0 0 Z M2 2 C0.33872225 5.32255551 0.85838276 9.03934429 0.8671875 12.69140625 C0.86623077 13.55185043 0.86527405 14.41229462 0.86428833 15.29881287 C0.86360735 17.11872429 0.86545591 18.93863815 0.86962891 20.75854492 C0.87498483 23.55457979 0.8696778 26.35045448 0.86328125 29.14648438 C0.86394192 30.91145869 0.86522285 32.6764329 0.8671875 34.44140625 C0.86516327 35.28304825 0.86313904 36.12469025 0.86105347 36.99183655 C0.5030319 40.80396543 0.5030319 40.80396543 2 44 C4.64 44 7.28 44 10 44 C10 29.81 10 15.62 10 1 C5.26352314 0.73647686 5.26352314 0.73647686 2 2 Z " fill="#67769A" transform="translate(412,179)"/>
<path d="M0 0 C1.46373047 0.02707031 1.46373047 0.02707031 2.95703125 0.0546875 C3.69308594 0.07789063 4.42914063 0.10109375 5.1875 0.125 C5.1875 0.785 5.1875 1.445 5.1875 2.125 C4.08341797 2.14626953 4.08341797 2.14626953 2.95703125 2.16796875 C-3.64441687 2.3011169 -3.64441687 2.3011169 -9 5.6875 C-9.598125 6.491875 -10.19625 7.29625 -10.8125 8.125 C-9.1625 7.795 -7.5125 7.465 -5.8125 7.125 C-5.8125 8.775 -5.8125 10.425 -5.8125 12.125 C-4.1625 11.795 -2.5125 11.465 -0.8125 11.125 C-3.42764317 13.24538635 -6.00887616 15.25591744 -8.8125 17.125 C-8.8125 16.465 -8.8125 15.805 -8.8125 15.125 C-9.4725 15.125 -10.1325 15.125 -10.8125 15.125 C-11.1425 13.805 -11.4725 12.485 -11.8125 11.125 C-14.28040926 11.74808493 -14.28040926 11.74808493 -16.8125 13.125 C-18.24393391 15.51952414 -18.24393391 15.51952414 -19.0625 18.375 C-19.3821875 19.35597656 -19.701875 20.33695313 -20.03125 21.34765625 C-20.85055878 24.26029895 -21.48702765 27.11438079 -21.8125 30.125 C-22.1425 30.125 -22.4725 30.125 -22.8125 30.125 C-23.1282085 23.0040194 -23.29200412 17.43965562 -19.8125 11.125 C-19.379375 10.238125 -18.94625 9.35125 -18.5 8.4375 C-14.04878152 2.33768209 -7.31362735 -0.17623198 0 0 Z " fill="#283D6E" transform="translate(449.8125,177.875)"/>
<path d="M0 0 C0.33 1.32 0.66 2.64 1 4 C1.66 4 2.32 4 3 4 C2.34 7.96 1.68 11.92 1 16 C-0.66666667 16 -2.33333333 16 -4 16 C-4.66 17.32 -5.32 18.64 -6 20 C-7.32 20 -8.64 20 -10 20 C-10.60901237 13.30086394 -8.86085025 7.0661507 -6 1 C-3 0 -3 0 0 0 Z " fill="#03205E" transform="translate(438,189)"/>
<path d="M0 0 C1.93742341 -0.02703381 3.87495479 -0.04641125 5.8125 -0.0625 C6.89144531 -0.07410156 7.97039062 -0.08570313 9.08203125 -0.09765625 C12 0 12 0 15 1 C14.938125 1.94875 14.87625 2.8975 14.8125 3.875 C14.874375 4.90625 14.93625 5.9375 15 7 C15.99 7.66 16.98 8.32 18 9 C17.67 9.66 17.34 10.32 17 11 C15.75283203 10.74863281 15.75283203 10.74863281 14.48046875 10.4921875 C13.39378906 10.28851563 12.30710937 10.08484375 11.1875 9.875 C10.10855469 9.66617188 9.02960938 9.45734375 7.91796875 9.2421875 C4.80717481 8.67960103 4.80717481 8.67960103 2 11 C1.01 11 0.02 11 -1 11 C-1.08942923 7.15454314 -0.81192163 3.75274011 0 0 Z " fill="#0E2B64" transform="translate(311,178)"/>
<path d="M0 0 C0.36180905 7.35678392 0.36180905 7.35678392 -1.125 10 C-3.94519875 11.504106 -5.85610056 11.44912849 -9 11 C-11.375 9.375 -11.375 9.375 -13 7 C-13.46226472 3.76414698 -13.63276496 1.91750919 -11.75 -0.8125 C-7.1092989 -3.96154718 -4.74867668 -2.69811175 0 0 Z " fill="#12265C" transform="translate(424,165)"/>
<path d="M0 0 C3.63 0 7.26 0 11 0 C11.66 1.65 12.32 3.3 13 5 C12.01 5 11.02 5 10 5 C10 3.68 10 2.36 10 1 C7.36 1.33 4.72 1.66 2 2 C1.67 19.82 1.34 37.64 1 56 C0.34 55.67 -0.32 55.34 -1 55 C-1.0252899 47.48861406 -1.04284141 39.97723903 -1.05493164 32.46582031 C-1.05997017 29.90884999 -1.06680107 27.35188257 -1.07543945 24.79492188 C-1.08752602 21.12629483 -1.09323301 17.45770577 -1.09765625 13.7890625 C-1.10539818 12.0655809 -1.10539818 12.0655809 -1.11329651 10.30728149 C-1.11337204 9.2463327 -1.11344757 8.18538391 -1.11352539 7.09228516 C-1.115746 6.15518707 -1.11796661 5.21808899 -1.12025452 4.25259399 C-1 2 -1 2 0 0 Z " fill="#057593" transform="translate(344,179)"/>
<path d="M0 0 C1.49080078 0.02707031 1.49080078 0.02707031 3.01171875 0.0546875 C3.77097656 0.07789063 4.53023438 0.10109375 5.3125 0.125 C5.291875 1.07375 5.27125 2.0225 5.25 3 C5.08698174 6.03166283 5.08698174 6.03166283 6.3125 8.125 C4.68798581 8.46069297 3.06287083 8.7934796 1.4375 9.125 C0.08011719 9.4034375 0.08011719 9.4034375 -1.3046875 9.6875 C-3.6875 10.125 -3.6875 10.125 -5.6875 10.125 C-6.3475 8.805 -7.0075 7.485 -7.6875 6.125 C-8.6775 6.125 -9.6675 6.125 -10.6875 6.125 C-8.35628421 0.74527125 -5.66952152 -0.13340051 0 0 Z " fill="#03215F" transform="translate(449.6875,179.875)"/>
<path d="M0 0 C4.43458973 1.3937282 6.87378374 3.60582235 10 7 C9.67 7.66 9.34 8.32 9 9 C8.34 9 7.68 9 7 9 C7 8.34 7 7.68 7 7 C4.55519921 7.18828772 4.55519921 7.18828772 2 8 C-0.67377706 11.92094152 -0.07767877 15.69215505 0.125 20.24609375 C-0.0105188 23.23174231 -0.7482118 25.3057215 -2 28 C-3.32 28 -4.64 28 -6 28 C-6 27.34 -6 26.68 -6 26 C-5.34 25.505 -4.68 25.01 -4 24.5 C-0.92752835 20.65941043 -1.67413958 16.74307941 -2 12 C-4.64 11.34 -7.28 10.68 -10 10 C-9.01 9.67 -8.02 9.34 -7 9 C-7 8.34 -7 7.68 -7 7 C-5.9275 6.896875 -4.855 6.79375 -3.75 6.6875 C-0.14179128 6.02599507 1.36395023 5.42516579 4 3 C3.01 3 2.02 3 1 3 C0.67 2.01 0.34 1.02 0 0 Z " fill="#193571" transform="translate(280,165)"/>
<path d="M0 0 C2.96175123 0.61277612 4.38058783 1.25372522 7 3 C7.1875 6.125 7.1875 6.125 7 9 C6.360625 9.20625 5.72125 9.4125 5.0625 9.625 C2.65074923 10.89538209 2.65074923 10.89538209 2.25 14.125 C2.1675 15.07375 2.085 16.0225 2 17 C0.25728062 14.702779 -1.39911152 12.40133271 -3 10 C-5.39504391 9.49264227 -5.39504391 9.49264227 -8.0625 9.4375 C-10.78515625 9.30859375 -10.78515625 9.30859375 -13 9 C-13.33 8.34 -13.66 7.68 -14 7 C-8.10304872 5.29298779 -3.58011183 7.04806365 2 9 C2 8.34 2 7.68 2 7 C1.01 6.34 0.02 5.68 -1 5 C-0.67 3.35 -0.34 1.7 0 0 Z " fill="#142E66" transform="translate(326,180)"/>
<path d="M0 0 C1.65 0 3.3 0 5 0 C4.67 1.32 4.34 2.64 4 4 C4.99 4 5.98 4 7 4 C7.66 5.32 8.32 6.64 9 8 C10.32 8 11.64 8 13 8 C13 7.34 13 6.68 13 6 C13.66 6 14.32 6 15 6 C15 4.02 15 2.04 15 0 C17.7824349 1.39121745 18.55210065 3.30164212 20 6 C20 6.66 20 7.32 20 8 C19.34 8 18.68 8 18 8 C18 9.32 18 10.64 18 12 C16.02 12.33 14.04 12.66 12 13 C11.67 12.01 11.34 11.02 11 10 C10.34 10 9.68 10 9 10 C8.67 10.99 8.34 11.98 8 13 C6.8529806 11.20909242 5.70742065 9.41725003 4.5625 7.625 C3.60537109 6.12839844 3.60537109 6.12839844 2.62890625 4.6015625 C1 2 1 2 0 0 Z " fill="#19356D" transform="translate(266,203)"/>
<path d="M0 0 C1.98 0 3.96 0 6 0 C5.01 0.33 4.02 0.66 3 1 C3 14.86 3 28.72 3 43 C2.01 43 1.02 43 0 43 C0 28.81 0 14.62 0 0 Z " fill="#7A829C" transform="translate(411,180)"/>
<path d="M0 0 C-0.66 2.97 -1.32 5.94 -2 9 C-1.34 9.33 -0.68 9.66 0 10 C-0.66 10 -1.32 10 -2 10 C-2.309375 10.61875 -2.61875 11.2375 -2.9375 11.875 C-3.625 13.25 -4.3125 14.625 -5 16 C1.27 16 7.54 16 14 16 C14 16.33 14 16.66 14 17 C7.4 17 0.8 17 -6 17 C-6 14.36 -6 11.72 -6 9 C-6.43941523 6.73433657 -6.43941523 6.73433657 -7 5 C-7 4.34 -7 3.68 -7 3 C-7.66 2.67 -8.32 2.34 -9 2 C-3.375 -1.125 -3.375 -1.125 0 0 Z " fill="#435986" transform="translate(312,180)"/>
<path d="M0 0 C0.33 0 0.66 0 1 0 C1 14.85 1 29.7 1 45 C-2.96 45 -6.92 45 -11 45 C-10.67 44.34 -10.34 43.68 -10 43 C-7.67843403 42.59270772 -5.3431213 42.25561323 -3 42 C-3 41.01 -3 40.02 -3 39 C-2.34 39 -1.68 39 -1 39 C-0.67 26.13 -0.34 13.26 0 0 Z " fill="#42527A" transform="translate(406,179)"/>
<path d="M0 0 C0.99 0 1.98 0 3 0 C0.93149406 4.48176288 -1.7993481 10.25341991 -6 13 C-8.6875 13.25 -8.6875 13.25 -12 12 C-14.91874037 9.19695744 -17.48171967 6.16382934 -20 3 C-19.34 2.67 -18.68 2.34 -18 2 C-16.8274869 2.95117134 -15.66212985 3.91117009 -14.5 4.875 C-13.8503125 5.40867188 -13.200625 5.94234375 -12.53125 6.4921875 C-11.77328125 7.23855469 -11.77328125 7.23855469 -11 8 C-11 8.66 -11 9.32 -11 10 C-10.01 10 -9.02 10 -8 10 C-8 9.01 -8 8.02 -8 7 C-7.01 7.33 -6.02 7.66 -5 8 C-5 7.01 -5 6.02 -5 5 C-4.01 5 -3.02 5 -2 5 C-2 4.01 -2 3.02 -2 2 C-1.34 2 -0.68 2 0 2 C0 1.34 0 0.68 0 0 Z " fill="#3761CC" transform="translate(209,212)"/>
<path d="M0 0 C6.6 0.33 13.2 0.66 20 1 C16.23312136 2.88343932 14.97041037 3.22057835 11 3 C11.33 3.66 11.66 4.32 12 5 C17.94 5.33 23.88 5.66 30 6 C30 6.33 30 6.66 30 7 C20.76 7.33 11.52 7.66 2 8 C1.67 7.34 1.34 6.68 1 6 C1.66 5.34 2.32 4.68 3 4 C3.99 4 4.98 4 6 4 C6 3.34 6 2.68 6 2 C4.02 2 2.04 2 0 2 C0 1.34 0 0.68 0 0 Z " fill="#041F56" transform="translate(307,197)"/>
<path d="M0 0 C20.59033079 -0.60559796 20.59033079 -0.60559796 28 3 C28.66 3.66 29.32 4.32 30 5 C28.02 5.99 28.02 5.99 26 7 C25.67 6.01 25.34 5.02 25 4 C24.01 4.66 23.02 5.32 22 6 C21.01 6.33 20.02 6.66 19 7 C18.34 6.67 17.68 6.34 17 6 C17.33 5.01 17.66 4.02 18 3 C16.86820313 2.95101562 15.73640625 2.90203125 14.5703125 2.8515625 C13.08851661 2.77653486 11.606747 2.70098703 10.125 2.625 C9.37863281 2.5940625 8.63226563 2.563125 7.86328125 2.53125 C2.2265625 2.2265625 2.2265625 2.2265625 0 0 Z " fill="#2653C7" transform="translate(160,143)"/>
<path d="M0 0 C1.125 3.75 1.125 3.75 0 6 C-3.63 6 -7.26 6 -11 6 C-11 5.34 -11 4.68 -11 4 C-10.34 4 -9.68 4 -9 4 C-8.87625 3.360625 -8.7525 2.72125 -8.625 2.0625 C-8.41875 1.381875 -8.2125 0.70125 -8 0 C-5.13822943 -1.43088528 -3.06624227 -0.59991697 0 0 Z " fill="#0240D9" transform="translate(203,249)"/>
<path d="M0 0 C3.96 0 7.92 0 12 0 C12 11.88 12 23.76 12 36 C11.67 36 11.34 36 11 36 C11 25.11 11 14.22 11 3 C7.7 2.67 4.4 2.34 1 2 C0.67 2.99 0.34 3.98 0 5 C0 3.35 0 1.7 0 0 Z " fill="#2E3C62" transform="translate(463,179)"/>
<path d="M0 0 C1.48904984 3.87152958 0.38670405 6.20480996 -1 10 C-3.47251531 17.85387216 -3.62314087 25.82810733 -4 34 C-6.6916463 31.3083537 -6.29897843 29.88399512 -6.3125 26.125 C-6.1686451 16.83608333 -3.99050011 8.36104785 0 0 Z " fill="#446BCA" transform="translate(129,165)"/>
<path d="M0 0 C1.258125 -0.020625 2.51625 -0.04125 3.8125 -0.0625 C4.52019531 -0.07410156 5.22789062 -0.08570313 5.95703125 -0.09765625 C8 0 8 0 11 1 C14.02930141 1.19172794 17.05647624 1.31677548 20.08984375 1.42578125 C23.59671394 2.11774087 24.82862879 3.21122685 27 6 C27 6.66 27 7.32 27 8 C27.99 8.33 28.98 8.66 30 9 C30 9.99 30 10.98 30 12 C29.34 12 28.68 12 28 12 C27.25291728 10.88681698 26.52760724 9.75898883 25.8125 8.625 C22.57392355 4.64090967 19.55694527 4.28466193 14.5625 3.6875 C13.30566406 3.58824219 12.04882812 3.48898438 10.75390625 3.38671875 C6.89623342 2.98931021 3.68210839 2.16402136 0 1 C0 0.67 0 0.34 0 0 Z " fill="#4F72CE" transform="translate(153,235)"/>
<path d="M0 0 C-0.33 2.31 -0.66 4.62 -1 7 C-0.34 7 0.32 7 1 7 C1 6.01 1 5.02 1 4 C4.65316671 5.24976756 5.78065836 5.67098753 8 9 C7.01 9.99 6.02 10.98 5 12 C1.16853404 10.43903239 -1.28148054 8.08588695 -4 5 C-4.8125 2.6875 -4.8125 2.6875 -5 1 C-3 0 -3 0 0 0 Z M5 3 C7 4 7 4 7 4 Z " fill="#1A316A" transform="translate(301,211)"/>
<path d="M0 0 C3.65369802 5.48054702 3.48699602 10.60070145 3 17 C1.93002198 21.87762396 0.4179981 26.25647827 -3 30 C-3.66 29.67 -4.32 29.34 -5 29 C-4.505 27.515 -4.505 27.515 -4 26 C-3.34 26 -2.68 26 -2 26 C-2 23.03 -2 20.06 -2 17 C-1.34 17.66 -0.68 18.32 0 19 C0 12.73 0 6.46 0 0 Z " fill="#4F6085" transform="translate(388,190)"/>
<path d="M0 0 C0.66 0.33 1.32 0.66 2 1 C1.67 1.33 1.34 1.66 1 2 C1.66 2.33 2.32 2.66 3 3 C2.814375 3.78375 2.62875 4.5675 2.4375 5.375 C1.74037734 7.97089775 1.74037734 7.97089775 3 10 C5.01669827 11.13350534 5.01669827 11.13350534 7 12 C7 12.33 7 12.66 7 13 C3.46322336 13.32152515 1.6037896 13.4131192 -1.375 11.375 C-3.46379841 8.32214079 -3.54068562 6.63031776 -3 3 C-1.5 1.125 -1.5 1.125 0 0 Z " fill="#2F436E" transform="translate(414,163)"/>
<path d="M0 0 C3.37462715 0.54723683 5.08235 1.0549 8 3 C8 4.32 8 5.64 8 7 C9.65 7.33 11.3 7.66 13 8 C13 8.66 13 9.32 13 10 C13.99 10.33 14.98 10.66 16 11 C16 11.66 16 12.32 16 13 C10.80474854 11.6393389 7.82444243 9.64232612 4 6 C4 5.34 4 4.68 4 4 C2.68 3.34 1.36 2.68 0 2 C0 1.34 0 0.68 0 0 Z " fill="#3D62CF" transform="translate(133,220)"/>
<path d="M0 0 C1.9375 1.125 1.9375 1.125 2.9375 3.125 C1.41769531 3.10759766 1.41769531 3.10759766 -0.1328125 3.08984375 C-1.48437314 3.08045791 -2.8359358 3.07135857 -4.1875 3.0625 C-4.85265625 3.05412109 -5.5178125 3.04574219 -6.203125 3.03710938 C-10.26931354 3.01717708 -14.0745092 3.33609839 -18.0625 4.125 C-17.0625 1.125 -17.0625 1.125 -15.30859375 -0.046875 C-10.42651869 -1.84687485 -4.93496759 -1.40999074 0 0 Z " fill="#4164D0" transform="translate(177.0625,161.875)"/>
<path d="M0 0 C2 1 2 1 2.61328125 2.55859375 C3.16734718 6.0564847 3.18432105 9.53068277 3.1875 13.0625 C3.19974609 13.78244141 3.21199219 14.50238281 3.22460938 15.24414062 C3.23519011 19.0426247 3.15755655 20.76366518 1 24 C1.020625 23.195625 1.04125 22.39125 1.0625 21.5625 C1.29633621 19.06645115 1.29633621 19.06645115 0 18 C-0.23287008 16.31816052 -0.41264166 14.6287584 -0.5625 12.9375 C-0.64628906 12.01839844 -0.73007812 11.09929687 -0.81640625 10.15234375 C-0.90728516 9.08693359 -0.90728516 9.08693359 -1 8 C-0.34 8 0.32 8 1 8 C0.835 7.4225 0.67 6.845 0.5 6.25 C0 4 0 4 0 0 Z " fill="#031E5A" transform="translate(386,189)"/>
<path d="M0 0 C3.96 0 7.92 0 12 0 C12 2.97 12 5.94 12 9 C11.34 9 10.68 9 10 9 C9.67 9.66 9.34 10.32 9 11 C7.68 10.34 6.36 9.68 5 9 C5.375 7.0625 5.375 7.0625 6 5 C6.66 4.67 7.32 4.34 8 4 C8.33 3.01 8.66 2.02 9 1 C6.03 1 3.06 1 0 1 C0 0.67 0 0.34 0 0 Z " fill="#031D56" transform="translate(395,163)"/>
<path d="M0 0 C2.59783875 2.5082581 5.03692381 4.9572319 7 8 C7 8.99 7 9.98 7 11 C2.05 11 -2.9 11 -8 11 C-8 10.67 -8 10.34 -8 10 C-5.69 10 -3.38 10 -1 10 C-0.67 9.01 -0.34 8.02 0 7 C0.66 7.33 1.32 7.66 2 8 C2 6.68 2 5.36 2 4 C1.01 3.67 0.02 3.34 -1 3 C-0.67 2.01 -0.34 1.02 0 0 Z " fill="#344773" transform="translate(287,213)"/>
<path d="M0 0 C7.32328987 2.81664995 10.87716856 9.08573924 14.21484375 15.73046875 C15 18 15 18 14 21 C13.7525 20.46375 13.505 19.9275 13.25 19.375 C11.95818042 16.81253405 11.95818042 16.81253405 9.875 13.875 C8 11 8 11 8 9 C7.01 9 6.02 9 5 9 C4.34 7.02 3.68 5.04 3 3 C2.34 3 1.68 3 1 3 C0.67 2.01 0.34 1.02 0 0 Z " fill="#4B6ACD" transform="translate(198,153)"/>
<path d="M0 0 C2.31 0.33 4.62 0.66 7 1 C7.33 2.32 7.66 3.64 8 5 C6.73637508 5.55827609 5.4637081 6.09612097 4.1875 6.625 C3.47980469 6.92664063 2.77210938 7.22828125 2.04296875 7.5390625 C1.36878906 7.69117188 0.69460938 7.84328125 0 8 C-0.99 7.34 -1.98 6.68 -3 6 C-2.34 6 -1.68 6 -1 6 C-0.67 4.02 -0.34 2.04 0 0 Z " fill="#021F5C" transform="translate(328,211)"/>
<path d="M0 0 C0 0.66 0 1.32 0 2 C-1.11375 2.12375 -2.2275 2.2475 -3.375 2.375 C-7.03103677 2.6465813 -7.03103677 2.6465813 -9 5 C-12 5.25 -12 5.25 -15 5 C-15.66 4.34 -16.32 3.68 -17 3 C-11.42531458 -0.61601216 -6.39432346 -0.30720059 0 0 Z " fill="#2C4473" transform="translate(374,178)"/>
<path d="M0 0 C1.63001953 0.15275391 1.63001953 0.15275391 3.29296875 0.30859375 C4.12441406 0.39238281 4.95585937 0.47617188 5.8125 0.5625 C5.8125 0.8925 5.8125 1.2225 5.8125 1.5625 C5.19761719 1.59988281 4.58273437 1.63726562 3.94921875 1.67578125 C2.73685547 1.77439453 2.73685547 1.77439453 1.5 1.875 C0.69949219 1.93300781 -0.10101563 1.99101562 -0.92578125 2.05078125 C-3.26893235 2.36947194 -3.26893235 2.36947194 -4.73046875 4.10546875 C-5.21128906 4.58628906 -5.69210937 5.06710938 -6.1875 5.5625 C-7.5075 5.5625 -8.8275 5.5625 -10.1875 5.5625 C-10.5175 6.2225 -10.8475 6.8825 -11.1875 7.5625 C-11.875 5.75 -11.875 5.75 -12.1875 3.5625 C-8.91148733 -0.86011711 -5.07325314 -0.49095998 0 0 Z " fill="#031E57" transform="translate(364.1875,214.4375)"/>
<path d="M0 0 C3.63 0 7.26 0 11 0 C11.66 1.65 12.32 3.3 13 5 C12.01 5 11.02 5 10 5 C10 3.68 10 2.36 10 1 C7.36 1.33 4.72 1.66 2 2 C2 5.63 2 9.26 2 13 C1.01 12.34 0.02 11.68 -1 11 C-1.328125 8.90625 -1.328125 8.90625 -1.25 6.5 C-1.23453125 5.7059375 -1.2190625 4.911875 -1.203125 4.09375 C-1 2 -1 2 0 0 Z " fill="#2A567D" transform="translate(344,179)"/>
<path d="M0 0 C2.67808299 0.23137849 5.35499331 0.47089499 8.03125 0.72265625 C9.82169653 0.88992165 11.61321887 1.0467878 13.40625 1.18359375 C17.41811519 1.55035008 19.35178994 1.98039462 22 5 C20.87851563 4.87431641 20.87851563 4.87431641 19.734375 4.74609375 C18.74953125 4.64425781 17.7646875 4.54242188 16.75 4.4375 C15.28820312 4.28087891 15.28820312 4.28087891 13.796875 4.12109375 C11.08502598 3.86475769 11.08502598 3.86475769 8.875 4.5625 C5.51059146 5.34752866 3.0147259 3.44938745 0 2 C0 1.34 0 0.68 0 0 Z " fill="#3C62D1" transform="translate(161,216)"/>
<path d="M0 0 C0.77601563 0.18304688 1.55203125 0.36609375 2.3515625 0.5546875 C4.375 1.125 4.375 1.125 6.375 2.125 C6.96855614 4.77360427 7.11709269 7.41697322 7.375 10.125 C5.63228062 7.827779 3.97588848 5.52633271 2.375 3.125 C-0.02004391 2.61764227 -0.02004391 2.61764227 -2.6875 2.5625 C-5.41015625 2.43359375 -5.41015625 2.43359375 -7.625 2.125 C-7.955 1.465 -8.285 0.805 -8.625 0.125 C-5.40567606 -0.91870776 -3.27143321 -0.79871112 0 0 Z " fill="#4A5A7F" transform="translate(320.625,186.875)"/>
<path d="M0 0 C7.425 0.99 7.425 0.99 15 2 C15 1.34 15 0.68 15 0 C15.66 0 16.32 0 17 0 C15.25 3.875 15.25 3.875 13 5 C7.31517951 5.54661735 4.44474911 4.57748099 0 1 C0 0.67 0 0.34 0 0 Z " fill="#5C7CD2" transform="translate(188,253)"/>
<path d="M0 0 C0.33 0.66 0.66 1.32 1 2 C1.99 2.33 2.98 2.66 4 3 C4 3.66 4 4.32 4 5 C4.99 5.33 5.98 5.66 7 6 C7.33 8.97 7.66 11.94 8 15 C4.10873653 11.66463131 1.82900259 7.73789501 0 3 C0 2.01 0 1.02 0 0 Z " fill="#4F74D8" transform="translate(125,205)"/>
<path d="M0 0 C0.33 0 0.66 0 1 0 C1 3.63 1 7.26 1 11 C-1.59891154 12.29945577 -3.32666656 12.0223077 -6.2265625 11.87890625 C-7.2578125 11.83056641 -8.2890625 11.78222656 -9.3515625 11.73242188 C-10.97191406 11.64831055 -10.97191406 11.64831055 -12.625 11.5625 C-13.71296875 11.51029297 -14.8009375 11.45808594 -15.921875 11.40429688 C-18.6148581 11.27437225 -21.30749336 11.13939838 -24 11 C-24 10.67 -24 10.34 -24 10 C-16.41 10 -8.82 10 -1 10 C-0.67 6.7 -0.34 3.4 0 0 Z " fill="#394F6D" transform="translate(338,194)"/>
<path d="M0 0 C0.99 0.33 1.98 0.66 3 1 C1.68 6.28 0.36 11.56 -1 17 C-1.33 17 -1.66 17 -2 17 C-2.05441656 15.10448978 -2.09298035 13.2085208 -2.125 11.3125 C-2.14820313 10.25675781 -2.17140625 9.20101562 -2.1953125 8.11328125 C-1.99858729 4.97748141 -1.33057654 2.82354627 0 0 Z " fill="#3C4E74" transform="translate(429,191)"/>
<path d="M0 0 C0.33 0.99 0.66 1.98 1 3 C-0.85625 3.680625 -0.85625 3.680625 -2.75 4.375 C-5.59245495 5.4384007 -8.32663046 6.55192483 -11 8 C-11 5 -11 5 -9 3 C-8.01 3 -7.02 3 -6 3 C-6.33 2.01 -6.66 1.02 -7 0 C-4.3333581 -1.33332095 -2.83319697 -0.67102033 0 0 Z " fill="#263A6D" transform="translate(368,186)"/>
<path d="M0 0 C2.97 0 5.94 0 9 0 C9 0.66 9 1.32 9 2 C7.02 2.33 5.04 2.66 3 3 C2.34 6.3 1.68 9.6 1 13 C0.67 13 0.34 13 0 13 C0 8.71 0 4.42 0 0 Z " fill="#04194F" transform="translate(395,164)"/>
<path d="M0 0 C0 0.66 0 1.32 0 2 C-0.61875 2.2475 -1.2375 2.495 -1.875 2.75 C-4.14291141 3.81460222 -4.14291141 3.81460222 -4.9375 6 C-6.39678871 8.7468964 -8.17880204 8.87152082 -11 10 C-12.34410262 12.01735205 -12.34410262 12.01735205 -13 14 C-13.66 14 -14.32 14 -15 14 C-14.1875 11.5625 -14.1875 11.5625 -13 9 C-12.01 8.67 -11.02 8.34 -10 8 C-9.731875 7.401875 -9.46375 6.80375 -9.1875 6.1875 C-7.36264026 2.82591626 -3.94410865 0 0 0 Z " fill="#4C73CC" transform="translate(147,149)"/>
<path d="M0 0 C1.485 0.99 1.485 0.99 3 2 C3.41137202 5.03866799 3.13193156 7.92159703 3 11 C5.97 11 8.94 11 12 11 C12 11.33 12 11.66 12 12 C8.7 12 5.4 12 2 12 C0.00214565 7.8794254 -0.17835515 4.54805635 0 0 Z " fill="#02143D" transform="translate(462,229)"/>
<path d="M0 0 C1.65 0 3.3 0 5 0 C4.67 1.32 4.34 2.64 4 4 C4.99 4 5.98 4 7 4 C7.99 5.98 8.98 7.96 10 10 C9.01 11.485 9.01 11.485 8 13 C6.8529806 11.20909242 5.70742065 9.41725003 4.5625 7.625 C3.60537109 6.12839844 3.60537109 6.12839844 2.62890625 4.6015625 C1 2 1 2 0 0 Z " fill="#4F6285" transform="translate(266,203)"/>
<path d="M0 0 C0.99 0.33 1.98 0.66 3 1 C0.37015289 4.94477066 -1.43284559 5.02667201 -6 6 C-8.33215844 6.07403678 -10.66860788 6.09515886 -13 6 C-13 5.34 -13 4.68 -13 4 C-10.00519083 3.1276588 -7.36424089 2.89170234 -4.25 2.9375 C-3.45078125 2.94652344 -2.6515625 2.95554688 -1.828125 2.96484375 C-1.22484375 2.97644531 -0.6215625 2.98804688 0 3 C0 2.01 0 1.02 0 0 Z " fill="#3A4972" transform="translate(459,220)"/>
<path d="M0 0 C1.67542976 0.28604898 3.34385343 0.61781233 5 1 C1.56227273 4.43772727 -2.10960984 4.97127774 -6.875 5.125 C-7.90625 5.08375 -8.9375 5.0425 -10 5 C-10.33 4.34 -10.66 3.68 -11 3 C-10.28972656 2.86722656 -9.57945312 2.73445312 -8.84765625 2.59765625 C-7.92855469 2.42105469 -7.00945312 2.24445313 -6.0625 2.0625 C-4.68771484 1.80146484 -4.68771484 1.80146484 -3.28515625 1.53515625 C-1.04710156 1.22285012 -1.04710156 1.22285012 0 0 Z " fill="#394B6E" transform="translate(376,221)"/>
<path d="M0 0 C0.721875 0.763125 1.44375 1.52625 2.1875 2.3125 C4.83926978 5.044086 4.83926978 5.044086 7.8125 6.6875 C8.534375 7.120625 9.25625 7.55375 10 8 C10 8.66 10 9.32 10 10 C11.32 10.33 12.64 10.66 14 11 C12.35 11.33 10.7 11.66 9 12 C9 11.34 9 10.68 9 10 C8.01 10 7.02 10 6 10 C6 9.34 6 8.68 6 8 C5.195625 7.79375 4.39125 7.5875 3.5625 7.375 C2.2940625 6.694375 2.2940625 6.694375 1 6 C0.1875 2.875 0.1875 2.875 0 0 Z " fill="#4165C9" transform="translate(147,205)"/>
<path d="M0 0 C2.1875 0.3125 2.1875 0.3125 4 1 C4 3.31 4 5.62 4 8 C1.03 7.505 1.03 7.505 -2 7 C-1.67 6.34 -1.34 5.68 -1 5 C-1.66 4.34 -2.32 3.68 -3 3 C-1.75 1.4375 -1.75 1.4375 0 0 Z " fill="#042161" transform="translate(417,167)"/>
<path d="M0 0 C0.33 0 0.66 0 1 0 C1 2.64 1 5.28 1 8 C0.34 8 -0.32 8 -1 8 C-1.66 9.32 -2.32 10.64 -3 12 C-3.66 12 -4.32 12 -5 12 C-5 11.34 -5 10.68 -5 10 C-5.66 9.67 -6.32 9.34 -7 9 C-6.030625 8.2575 -5.06125 7.515 -4.0625 6.75 C-1.97612639 5.02690085 -1.09887521 4.26131306 -0.125 1.6875 C-0.08375 1.130625 -0.0425 0.57375 0 0 Z " fill="#3B4F7D" transform="translate(462,204)"/>
<path d="M0 0 C0.99 0 1.98 0 3 0 C2.87431641 0.88751953 2.87431641 0.88751953 2.74609375 1.79296875 C2.19110576 6.09939457 1.76773348 9.75552644 3 14 C2.01 14.33 1.02 14.66 0 15 C-1.5638537 10.1129572 -1.5638537 4.8870428 0 0 Z " fill="#3D4F7B" transform="translate(354,195)"/>
<path d="M0 0 C2.475 0.99 2.475 0.99 5 2 C5 2.66 5 3.32 5 4 C6.98 3.67 8.96 3.34 11 3 C11 3.99 11 4.98 11 6 C9.3125 6.6875 9.3125 6.6875 7 7 C3.30194812 5.32707177 1.44626119 3.81287042 0 0 Z " fill="#2252CD" transform="translate(183,247)"/>
<path d="M0 0 C5.45769811 -0.11138159 10.61509359 0.08342019 16 1 C15.67 1.66 15.34 2.32 15 3 C9.5814234 3.22577402 5.22512279 2.46670113 0 1 C0 0.67 0 0.34 0 0 Z " fill="#3A4871" transform="translate(306,223)"/>
<path d="M0 0 C0.99 0 1.98 0 3 0 C3 0.66 3 1.32 3 2 C4.32 2 5.64 2 7 2 C6.67 2.99 6.34 3.98 6 5 C4.02 5 2.04 5 0 5 C-0.33 4.01 -0.66 3.02 -1 2 C-0.67 1.34 -0.34 0.68 0 0 Z " fill="#182D63" transform="translate(323,219)"/>
<path d="M0 0 C0.66 0.33 1.32 0.66 2 1 C2.3690205 10.41002278 2.3690205 10.41002278 0 15 C-1.32 15 -2.64 15 -4 15 C-4 14.34 -4 13.68 -4 13 C-3.34 12.484375 -2.68 11.96875 -2 11.4375 C0.9525019 7.83913831 0.34491116 4.48384508 0 0 Z " fill="#687497" transform="translate(278,178)"/>
<path d="M0 0 C4.43458973 1.3937282 6.87378374 3.60582235 10 7 C9.67 7.66 9.34 8.32 9 9 C8.34 9 7.68 9 7 9 C7 8.34 7 7.68 7 7 C6.01 7 5.02 7 4 7 C4 5.68 4 4.36 4 3 C3.01 3 2.02 3 1 3 C0.67 2.01 0.34 1.02 0 0 Z " fill="#495787" transform="translate(280,165)"/>
<path d="M0 0 C1.32 0 2.64 0 4 0 C2.98545548 2.5363613 2.3146444 3.79351461 0 5.3125 C-0.66 5.539375 -1.32 5.76625 -2 6 C-2.66 5.67 -3.32 5.34 -4 5 C-3.34 3.68 -2.68 2.36 -2 1 C-1.34 1.33 -0.68 1.66 0 2 C0 1.34 0 0.68 0 0 Z " fill="#344977" transform="translate(332,216)"/>
<path d="M0 0 C0.99 0 1.98 0 3 0 C2.67 2.31 2.34 4.62 2 7 C2.99 7.33 3.98 7.66 5 8 C3.68 8 2.36 8 1 8 C-0.8125 5.625 -0.8125 5.625 -2 3 C-1 1 -1 1 0 0 Z " fill="#3A4D79" transform="translate(298,211)"/>
<path d="M0 0 C1.65 0 3.3 0 5 0 C5 0.99 5 1.98 5 3 C3.39620659 3.05416188 1.79188594 3.09286638 0.1875 3.125 C-0.70582031 3.14820313 -1.59914062 3.17140625 -2.51953125 3.1953125 C-5 3 -5 3 -8 1 C-5.36 1.33 -2.72 1.66 0 2 C0 1.34 0 0.68 0 0 Z " fill="#0040D0" transform="translate(169,234)"/>
<path d="M0 0 C4.42326378 1.35155282 6.40412982 3.19890438 9 7 C9.33 7.99 9.66 8.98 10 10 C6.56870293 8.85623431 5.62153121 7.71081232 3.3125 5 C2.68988281 4.278125 2.06726563 3.55625 1.42578125 2.8125 C0 1 0 1 0 0 Z " fill="#436ECE" transform="translate(189,214)"/>
<path d="M0 0 C0.99 0 1.98 0 3 0 C3.73080266 1.97746603 4.39421747 3.98072489 5 6 C4.67 6.66 4.34 7.32 4 8 C1.525 7.01 1.525 7.01 -1 6 C-0.67 5.34 -0.34 4.68 0 4 C0.66 4 1.32 4 2 4 C1.34 2.68 0.68 1.36 0 0 Z " fill="#031F5A" transform="translate(306,211)"/>
<path d="M0 0 C0.66 0.33 1.32 0.66 2 1 C2.29296875 7.0546875 2.29296875 7.0546875 2 9 C1.01 9.66 0.02 10.32 -1 11 C-1.33 9.02 -1.66 7.04 -2 5 C-1.34 5 -0.68 5 0 5 C0 3.35 0 1.7 0 0 Z " fill="#2A3B65" transform="translate(422,164)"/>
<path d="M0 0 C2.475 0.495 2.475 0.495 5 1 C5 1.66 5 2.32 5 3 C5.99 3 6.98 3 8 3 C7.67 3.66 7.34 4.32 7 5 C4.9375 5.625 4.9375 5.625 3 6 C0 2.25 0 2.25 0 0 Z " fill="#051B5A" transform="translate(276,165)"/>
<path d="M0 0 C3.40843742 2.88406243 4.86591384 4.3708265 5.8125 8.8125 C5.9053125 10.3903125 5.9053125 10.3903125 6 12 C5.34 12 4.68 12 4 12 C3.896875 11.05125 3.79375 10.1025 3.6875 9.125 C3.31460705 5.70892499 3.31460705 5.70892499 0 4 C0 2.68 0 1.36 0 0 Z " fill="#5474CC" transform="translate(201,239)"/>
<path d="M0 0 C1.4589426 0.47730838 2.91713496 0.95691042 4.375 1.4375 C5.18710937 1.70433594 5.99921875 1.97117188 6.8359375 2.24609375 C9 3 9 3 11 4 C10.67 5.32 10.34 6.64 10 8 C9.34 6.68 8.68 5.36 8 4 C7.01 4.33 6.02 4.66 5 5 C4.34 4.67 3.68 4.34 3 4 C3 3.34 3 2.68 3 2 C2.01 2 1.02 2 0 2 C0 1.34 0 0.68 0 0 Z " fill="#7C83A2" transform="translate(327,208)"/>
<path d="M0 0 C1.32 0.33 2.64 0.66 4 1 C3.01 2.485 3.01 2.485 2 4 C1.34 4 0.68 4 0 4 C-0.33 4.99 -0.66 5.98 -1 7 C-1.99 7 -2.98 7 -4 7 C-2.79618552 4.50638429 -1.54571278 2.31856917 0 0 Z " fill="#315ECD" transform="translate(192,204)"/>
<path d="M0 0 C1.46015291 0.28241641 2.91809793 0.57626614 4.375 0.875 C5.18710938 1.03742188 5.99921875 1.19984375 6.8359375 1.3671875 C9 2 9 2 11 4 C9.02 4.99 9.02 4.99 7 6 C6.67 5.01 6.34 4.02 6 3 C5.195625 2.87625 4.39125 2.7525 3.5625 2.625 C2.716875 2.41875 1.87125 2.2125 1 2 C0.67 1.34 0.34 0.68 0 0 Z " fill="#3E63CE" transform="translate(179,144)"/>
<path d="M0 0 C0.8353125 0.37125 0.8353125 0.37125 1.6875 0.75 C1.0275 0.75 0.3675 0.75 -0.3125 0.75 C-0.580625 1.389375 -0.84875 2.02875 -1.125 2.6875 C-2.3125 4.75 -2.3125 4.75 -5.3125 5.75 C-5.9725 5.09 -6.6325 4.43 -7.3125 3.75 C-2.88173077 -0.31153846 -2.88173077 -0.31153846 0 0 Z " fill="#404F7A" transform="translate(328.3125,210.25)"/>
<path d="M0 0 C0.99 0.33 1.98 0.66 3 1 C3 1.66 3 2.32 3 3 C5.475 3.99 5.475 3.99 8 5 C8 5.33 8 5.66 8 6 C6.02 6.33 4.04 6.66 2 7 C0.5393715 4.35261084 0 3.10551666 0 0 Z " fill="#253866" transform="translate(355,208)"/>
<path d="M0 0 C2.64 0.33 5.28 0.66 8 1 C7.67 2.65 7.34 4.3 7 6 C3.535 4.02 3.535 4.02 0 2 C0 1.34 0 0.68 0 0 Z " fill="#334672" transform="translate(454,188)"/>
<path d="M0 0 C0.99 0 1.98 0 3 0 C3 0.66 3 1.32 3 2 C3.66 2.33 4.32 2.66 5 3 C4.34 3 3.68 3 3 3 C2.67 3.66 2.34 4.32 2 5 C2 4.34 2 3.68 2 3 C0.35 4.32 -1.3 5.64 -3 7 C-1.125 1.125 -1.125 1.125 0 0 Z " fill="#0C2158" transform="translate(302,183)"/>
<path d="M0 0 C7.50769231 0.61538462 7.50769231 0.61538462 10 2.5625 C10.33 3.036875 10.66 3.51125 11 4 C10.29875 3.855625 9.5975 3.71125 8.875 3.5625 C5.92443859 2.98521625 2.96729849 2.48304859 0 2 C0 1.34 0 0.68 0 0 Z " fill="#6380CE" transform="translate(172,217)"/>
<path d="M0 0 C1.32 0 2.64 0 4 0 C3.67 0.99 3.34 1.98 3 3 C1.67696283 3.3721042 0.34262065 3.70630173 -1 4 C-1.33 4.66 -1.66 5.32 -2 6 C-2.33 4.68 -2.66 3.36 -3 2 C-2.01 2 -1.02 2 0 2 C0 1.34 0 0.68 0 0 Z " fill="#4468CD" transform="translate(154,165)"/>
<path d="M0 0 C3.96 0 7.92 0 12 0 C12 1.65 12 3.3 12 5 C11.67 4.34 11.34 3.68 11 3 C10.34 3 9.68 3 9 3 C9 2.34 9 1.68 9 1 C6.03 1 3.06 1 0 1 C0 0.67 0 0.34 0 0 Z " fill="#485779" transform="translate(395,163)"/>
<path d="M0 0 C1.258125 -0.020625 2.51625 -0.04125 3.8125 -0.0625 C4.52019531 -0.07410156 5.22789062 -0.08570313 5.95703125 -0.09765625 C8 0 8 0 11 1 C11 1.66 11 2.32 11 3 C6.94393835 2.53199289 3.53411321 2.12046792 0 0 Z " fill="#3763CF" transform="translate(153,235)"/>
<path d="M0 0 C0.680625 0.474375 1.36125 0.94875 2.0625 1.4375 C5.41841956 3.2225636 8.24161481 3.63153086 12 4 C12 4.33 12 4.66 12 5 C8.7 5 5.4 5 2 5 C1.34 3.35 0.68 1.7 0 0 Z " fill="#435077" transform="translate(309,211)"/>
<path d="M0 0 C3 1 3 1 4.25 2.875 C5 5 5 5 4 8 C0 2.25 0 2.25 0 0 Z " fill="#5D7BCF" transform="translate(128,212)"/>
<path d="M0 0 C1.88391785 3.26545761 2.49287967 6.28111761 3 10 C2.34 10 1.68 10 1 10 C-0.60725635 6.78548731 -0.05748185 3.56387464 0 0 Z " fill="#5575D2" transform="translate(143,194)"/>
<path d="M0 0 C0.99 0.33 1.98 0.66 3 1 C1.68 3.64 0.36 6.28 -1 9 C-1.33 9 -1.66 9 -2 9 C-1.125 2.25 -1.125 2.25 0 0 Z " fill="#6886D2" transform="translate(146,174)"/>
</svg>
